<?xml version="1.0" encoding="utf-8"?>
<!-- Generator: Adobe Illustrator 16.0.0, SVG Export Plug-In . SVG Version: 6.00 Build 0)  -->
<!DOCTYPE svg PUBLIC "-//W3C//DTD SVG 1.1//EN" "http://www.w3.org/Graphics/SVG/1.1/DTD/svg11.dtd">
<svg version="1.1" id="Layer_1" xmlns="http://www.w3.org/2000/svg" xmlns:xlink="http://www.w3.org/1999/xlink" x="0px" y="0px"
	 width="54.6px" height="104.2px" viewBox="0 0 54.6 104.2" style="enable-background:new 0 0 54.6 104.2;" xml:space="preserve">
<g>
	<g>
		<g>
			<path style="fill:#458B9E;" d="M29.3,0h-4C11.3,0,0,12.2,0,27.1v49.7c0,15,11.3,27.1,25.3,27.1h4c14,0,25.3-12.2,25.3-27.1V27.1
				C54.6,12.2,43.2,0,29.3,0z M10.8,27.3L28.5,11l16,16.3v14.2L32.9,30.4v22.4h-9.9V30.4L10.8,41.6V27.3z M27.6,94.9
				c-10,0-18-8.1-18-18c0-10,8.1-18,18-18c10,0,18,8.1,18,18C45.7,86.8,37.6,94.9,27.6,94.9z"/>
		</g>
	</g>
	<g>
		<circle style="fill:#458B9E;" cx="27.6" cy="76.9" r="15.2"/>
	</g>
</g>
</svg>
